<?xml version="1.0" encoding="UTF-8"?>
<svg id="Layer_1" data-name="Layer 1" xmlns="http://www.w3.org/2000/svg" xmlns:xlink="http://www.w3.org/1999/xlink" viewBox="0 0 1080 221.58">
  <defs>
    <style>
      .cls-1 {
        fill: url(#linear-gradient);
      }

      .cls-2 {
        fill: #fff;
      }
    </style>
    <linearGradient id="linear-gradient" x1="554.21" y1="112.41" x2="1080" y2="112.41" gradientUnits="userSpaceOnUse">
      <stop offset="0" stop-color="#bcdeff"/>
      <stop offset="1" stop-color="#2d80ff"/>
    </linearGradient>
  </defs>
  <g>
    <g>
      <path d="M678.43,33.92h-36.79v121.05c0,6.97-1.55,12.14-4.65,15.51-3.1,3.37-7.12,5.06-12.04,5.06s-9.07-1.71-12.21-5.11c-3.14-3.41-4.71-8.56-4.71-15.46V33.92h-36.79c-5.75,0-10.03-1.27-12.83-3.81-2.8-2.54-4.2-5.89-4.2-10.06s1.46-7.73,4.37-10.23c2.91-2.5,7.13-3.75,12.66-3.75h107.18c5.83,0,10.16,1.29,13,3.86,2.84,2.58,4.26,5.95,4.26,10.12s-1.44,7.52-4.31,10.06c-2.88,2.54-7.19,3.81-12.94,3.81Z"/>
      <path d="M718.67,22.1v46.03c3.93-4.55,7.78-8.14,11.52-10.8,3.75-2.65,7.89-4.64,12.43-5.97,4.54-1.33,9.42-1.99,14.65-1.99,7.87,0,14.85,1.67,20.95,5,6.09,3.34,10.88,8.18,14.36,14.55,2.19,3.71,3.67,7.86,4.43,12.45.76,4.59,1.14,9.87,1.14,15.86v59.45c0,6.21-1.42,10.91-4.26,14.09-2.84,3.18-6.6,4.77-11.3,4.77-10.22,0-15.33-6.29-15.33-18.87v-52.4c0-9.93-1.48-17.56-4.43-22.9-2.95-5.34-8.55-8.01-16.8-8.01-5.53,0-10.5,1.57-14.93,4.72-4.43,3.15-7.74,7.44-9.93,12.9-1.67,4.62-2.5,12.84-2.5,24.67v41.03c0,6.14-1.38,10.82-4.14,14.04-2.76,3.22-6.6,4.83-11.52,4.83-10.22,0-15.33-6.29-15.33-18.87V22.1c0-6.29,1.34-11.01,4.03-14.15,2.69-3.14,6.45-4.72,11.3-4.72s8.76,1.59,11.52,4.77c2.76,3.18,4.14,7.88,4.14,14.09Z"/>
      <path d="M822.39,34.95c-4.32,0-8.01-1.32-11.07-3.98-3.07-2.65-4.6-6.4-4.6-11.25,0-4.39,1.57-8.01,4.71-10.85,3.14-2.84,6.79-4.26,10.96-4.26s7.57,1.29,10.67,3.86c3.1,2.58,4.65,6.33,4.65,11.25s-1.51,8.51-4.54,11.2c-3.03,2.69-6.62,4.03-10.79,4.03ZM837.71,67v89.68c0,6.21-1.48,10.91-4.43,14.09-2.95,3.18-6.7,4.77-11.24,4.77s-8.23-1.63-11.07-4.89-4.26-7.92-4.26-13.98v-88.77c0-6.14,1.42-10.76,4.26-13.87,2.84-3.11,6.53-4.66,11.07-4.66s8.29,1.55,11.24,4.66c2.95,3.11,4.43,7.43,4.43,12.96Z"/>
      <path d="M875.8,66.54v3.75c5.45-7.2,11.41-12.48,17.88-15.86,6.47-3.37,13.91-5.06,22.31-5.06s15.48,1.78,21.91,5.34c6.43,3.56,11.24,8.6,14.42,15.12,2.04,3.79,3.37,7.88,3.97,12.28.61,4.4.91,10,.91,16.82v57.74c0,6.21-1.42,10.91-4.26,14.09-2.84,3.18-6.53,4.77-11.07,4.77s-8.37-1.63-11.24-4.89c-2.88-3.26-4.31-7.92-4.31-13.98v-51.72c0-10.23-1.42-18.05-4.26-23.47-2.84-5.42-8.5-8.13-16.98-8.13-5.53,0-10.56,1.65-15.1,4.94-4.54,3.3-7.87,7.82-9.99,13.58-1.51,4.62-2.27,13.26-2.27,25.92v38.87c0,6.29-1.46,11.01-4.37,14.15-2.91,3.14-6.68,4.72-11.3,4.72s-8.14-1.63-11.01-4.89c-2.88-3.26-4.31-7.92-4.31-13.98v-89.68c0-5.91,1.29-10.32,3.86-13.24,2.57-2.92,6.09-4.38,10.56-4.38,2.73,0,5.18.64,7.38,1.93,2.19,1.29,3.95,3.22,5.28,5.8,1.32,2.58,1.99,5.72,1.99,9.43Z"/>
      <path d="M1080,72.11v90.13c0,10.31-1.1,19.17-3.29,26.6-2.2,7.43-5.72,13.56-10.56,18.41-4.84,4.85-11.18,8.45-19.02,10.8-7.83,2.35-17.58,3.52-29.24,3.52-10.67,0-20.21-1.5-28.61-4.49-8.4-2.99-14.87-6.86-19.42-11.59-4.54-4.74-6.81-9.61-6.81-14.61,0-3.79,1.29-6.88,3.86-9.26,2.57-2.39,5.68-3.58,9.31-3.58,4.54,0,8.52,2.01,11.92,6.02,1.66,2.05,3.39,4.11,5.17,6.2,1.78,2.08,3.75,3.86,5.9,5.34,2.16,1.48,4.75,2.58,7.78,3.3,3.03.72,6.51,1.08,10.45,1.08,8.02,0,14.25-1.12,18.68-3.35,4.43-2.24,7.53-5.36,9.31-9.38,1.78-4.02,2.82-8.32,3.12-12.9.3-4.58.53-11.95.68-22.11-4.77,6.67-10.28,11.75-16.52,15.23-6.24,3.49-13.68,5.23-22.31,5.23-10.37,0-19.44-2.65-27.19-7.96-7.76-5.3-13.72-12.73-17.88-22.28-4.16-9.55-6.25-20.57-6.25-33.08,0-9.32,1.27-17.73,3.8-25.23,2.54-7.5,6.15-13.83,10.84-18.98,4.69-5.15,10.11-9.04,16.24-11.65,6.13-2.61,12.87-3.92,20.21-3.92,8.78,0,16.39,1.69,22.82,5.06,6.43,3.37,12.41,8.66,17.94,15.86v-4.21c0-5.38,1.32-9.55,3.97-12.5,2.65-2.96,6.06-4.43,10.22-4.43,5.98,0,9.95,1.95,11.92,5.85,1.97,3.9,2.95,9.53,2.95,16.88ZM990.19,111.44c0,12.58,2.74,22.09,8.23,28.53,5.49,6.44,12.58,9.66,21.29,9.66,5.15,0,10.01-1.38,14.59-4.15,4.58-2.77,8.31-6.93,11.18-12.5,2.88-5.57,4.31-12.33,4.31-20.29,0-12.65-2.78-22.5-8.35-29.55-5.56-7.05-12.89-10.57-21.97-10.57s-15.95,3.37-21.29,10.12c-5.34,6.74-8,16.33-8,28.76Z"/>
    </g>
    <g>
      <path class="cls-1" d="M678.43,33.92h-36.79v121.05c0,6.97-1.55,12.14-4.65,15.51-3.1,3.37-7.12,5.06-12.04,5.06s-9.07-1.71-12.21-5.11c-3.14-3.41-4.71-8.56-4.71-15.46V33.92h-36.79c-5.75,0-10.03-1.27-12.83-3.81-2.8-2.54-4.2-5.89-4.2-10.06s1.46-7.73,4.37-10.23c2.91-2.5,7.13-3.75,12.66-3.75h107.18c5.83,0,10.16,1.29,13,3.86,2.84,2.58,4.26,5.95,4.26,10.12s-1.44,7.52-4.31,10.06c-2.88,2.54-7.19,3.81-12.94,3.81Z"/>
      <path class="cls-1" d="M718.67,22.1v46.03c3.93-4.55,7.78-8.14,11.52-10.8,3.75-2.65,7.89-4.64,12.43-5.97,4.54-1.33,9.42-1.99,14.65-1.99,7.87,0,14.85,1.67,20.95,5,6.09,3.34,10.88,8.18,14.36,14.55,2.19,3.71,3.67,7.86,4.43,12.45.76,4.59,1.14,9.87,1.14,15.86v59.45c0,6.21-1.42,10.91-4.26,14.09-2.84,3.18-6.6,4.77-11.3,4.77-10.22,0-15.33-6.29-15.33-18.87v-52.4c0-9.93-1.48-17.56-4.43-22.9-2.95-5.34-8.55-8.01-16.8-8.01-5.53,0-10.5,1.57-14.93,4.72-4.43,3.15-7.74,7.44-9.93,12.9-1.67,4.62-2.5,12.84-2.5,24.67v41.03c0,6.14-1.38,10.82-4.14,14.04-2.76,3.22-6.6,4.83-11.52,4.83-10.22,0-15.33-6.29-15.33-18.87V22.1c0-6.29,1.34-11.01,4.03-14.15,2.69-3.14,6.45-4.72,11.3-4.72s8.76,1.59,11.52,4.77c2.76,3.18,4.14,7.88,4.14,14.09Z"/>
      <path class="cls-1" d="M822.39,34.95c-4.32,0-8.01-1.32-11.07-3.98-3.07-2.65-4.6-6.4-4.6-11.25,0-4.39,1.57-8.01,4.71-10.85,3.14-2.84,6.79-4.26,10.96-4.26s7.57,1.29,10.67,3.86c3.1,2.58,4.65,6.33,4.65,11.25s-1.51,8.51-4.54,11.2c-3.03,2.69-6.62,4.03-10.79,4.03ZM837.71,67v89.68c0,6.21-1.48,10.91-4.43,14.09-2.95,3.18-6.7,4.77-11.24,4.77s-8.23-1.63-11.07-4.89-4.26-7.92-4.26-13.98v-88.77c0-6.14,1.42-10.76,4.26-13.87,2.84-3.11,6.53-4.66,11.07-4.66s8.29,1.55,11.24,4.66c2.95,3.11,4.43,7.43,4.43,12.96Z"/>
      <path class="cls-1" d="M875.8,66.54v3.75c5.45-7.2,11.41-12.48,17.88-15.86,6.47-3.37,13.91-5.06,22.31-5.06s15.48,1.78,21.91,5.34c6.43,3.56,11.24,8.6,14.42,15.12,2.04,3.79,3.37,7.88,3.97,12.28.61,4.4.91,10,.91,16.82v57.74c0,6.21-1.42,10.91-4.26,14.09-2.84,3.18-6.53,4.77-11.07,4.77s-8.37-1.63-11.24-4.89c-2.88-3.26-4.31-7.92-4.31-13.98v-51.72c0-10.23-1.42-18.05-4.26-23.47-2.84-5.42-8.5-8.13-16.98-8.13-5.53,0-10.56,1.65-15.1,4.94-4.54,3.3-7.87,7.82-9.99,13.58-1.51,4.62-2.27,13.26-2.27,25.92v38.87c0,6.29-1.46,11.01-4.37,14.15-2.91,3.14-6.68,4.72-11.3,4.72s-8.14-1.63-11.01-4.89c-2.88-3.26-4.31-7.92-4.31-13.98v-89.68c0-5.91,1.29-10.32,3.86-13.24,2.57-2.92,6.09-4.38,10.56-4.38,2.73,0,5.18.64,7.38,1.93,2.19,1.29,3.95,3.22,5.28,5.8,1.32,2.58,1.99,5.72,1.99,9.43Z"/>
      <path class="cls-1" d="M1080,72.11v90.13c0,10.31-1.1,19.17-3.29,26.6-2.2,7.43-5.72,13.56-10.56,18.41-4.84,4.85-11.18,8.45-19.02,10.8-7.83,2.35-17.58,3.52-29.24,3.52-10.67,0-20.21-1.5-28.61-4.49-8.4-2.99-14.87-6.86-19.42-11.59-4.54-4.74-6.81-9.61-6.81-14.61,0-3.79,1.29-6.88,3.86-9.26,2.57-2.39,5.68-3.58,9.31-3.58,4.54,0,8.52,2.01,11.92,6.02,1.66,2.05,3.39,4.11,5.17,6.2,1.78,2.08,3.75,3.86,5.9,5.34,2.16,1.48,4.75,2.58,7.78,3.3,3.03.72,6.51,1.08,10.45,1.08,8.02,0,14.25-1.12,18.68-3.35,4.43-2.24,7.53-5.36,9.31-9.38,1.78-4.02,2.82-8.32,3.12-12.9.3-4.58.53-11.95.68-22.11-4.77,6.67-10.28,11.75-16.52,15.23-6.24,3.49-13.68,5.23-22.31,5.23-10.37,0-19.44-2.65-27.19-7.96-7.76-5.3-13.72-12.73-17.88-22.28-4.16-9.55-6.25-20.57-6.25-33.08,0-9.32,1.27-17.73,3.8-25.23,2.54-7.5,6.15-13.83,10.84-18.98,4.69-5.15,10.11-9.04,16.24-11.65,6.13-2.61,12.87-3.92,20.21-3.92,8.78,0,16.39,1.69,22.82,5.06,6.43,3.37,12.41,8.66,17.94,15.86v-4.21c0-5.38,1.32-9.55,3.97-12.5,2.65-2.96,6.06-4.43,10.22-4.43,5.98,0,9.95,1.95,11.92,5.85,1.97,3.9,2.95,9.53,2.95,16.88ZM990.19,111.44c0,12.58,2.74,22.09,8.23,28.53,5.49,6.44,12.58,9.66,21.29,9.66,5.15,0,10.01-1.38,14.59-4.15,4.58-2.77,8.31-6.93,11.18-12.5,2.88-5.57,4.31-12.33,4.31-20.29,0-12.65-2.78-22.5-8.35-29.55-5.56-7.05-12.89-10.57-21.97-10.57s-15.95,3.37-21.29,10.12c-5.34,6.74-8,16.33-8,28.76Z"/>
    </g>
  </g>
  <g>
    <path class="cls-2" d="M46.45,100.08h-12.05v54.56c0,7.18-1.58,12.47-4.75,15.87-3.17,3.4-7.3,5.1-12.39,5.1-5.48,0-9.73-1.78-12.74-5.33-3.01-3.55-4.52-8.76-4.52-15.64V23.98c0-7.41,1.66-12.78,4.98-16.1S13.67,2.9,21.08,2.9h55.95c7.72,0,14.32.33,19.81.98,5.48.66,10.42,1.99,14.83,4,5.33,2.24,10.04,5.44,14.13,9.61,4.09,4.17,7.2,9.02,9.32,14.54,2.12,5.52,3.19,11.37,3.19,17.55,0,12.67-3.57,22.78-10.71,30.35-7.14,7.57-17.97,12.94-32.49,16.1,6.1,3.24,11.93,8.03,17.49,14.36,5.56,6.33,10.52,13.07,14.88,20.21,4.36,7.14,7.76,13.59,10.19,19.34,2.43,5.75,3.65,9.71,3.65,11.87s-.72,4.46-2.14,6.66c-1.43,2.2-3.38,3.94-5.85,5.21-2.47,1.27-5.33,1.91-8.57,1.91-3.86,0-7.11-.91-9.73-2.72-2.63-1.81-4.89-4.11-6.78-6.89-1.89-2.78-4.46-6.87-7.7-12.28l-13.78-22.93c-4.94-8.42-9.36-14.83-13.26-19.23-3.9-4.4-7.86-7.41-11.87-9.04-4.02-1.62-9.07-2.43-15.17-2.43ZM66.14,28.73h-31.74v46.68h30.81c8.26,0,15.21-.71,20.85-2.14,5.64-1.43,9.94-3.86,12.92-7.3,2.97-3.43,4.46-8.17,4.46-14.19,0-4.71-1.2-8.86-3.59-12.45-2.39-3.59-5.72-6.27-9.96-8.05-4.02-1.7-11.93-2.55-23.75-2.55Z"/>
    <path class="cls-2" d="M222.91,157.76c-7.64,5.95-15.04,10.41-22.18,13.38-7.14,2.97-15.16,4.46-24.03,4.46-8.11,0-15.23-1.6-21.37-4.81-6.14-3.2-10.87-7.55-14.19-13.03-3.32-5.48-4.98-11.43-4.98-17.84,0-8.65,2.74-16.02,8.22-22.12,5.48-6.1,13.01-10.19,22.59-12.28,2.01-.46,6.99-1.51,14.94-3.13,7.95-1.62,14.77-3.11,20.44-4.46,5.68-1.35,11.83-2.99,18.48-4.92-.39-8.34-2.07-14.46-5.04-18.36-2.97-3.9-9.13-5.85-18.47-5.85-8.03,0-14.07,1.12-18.13,3.36-4.05,2.24-7.53,5.6-10.43,10.08-2.9,4.48-4.94,7.43-6.14,8.86-1.2,1.43-3.76,2.14-7.7,2.14-3.55,0-6.62-1.14-9.21-3.42-2.59-2.28-3.88-5.19-3.88-8.75,0-5.56,1.97-10.96,5.91-16.22,3.94-5.25,10.08-9.57,18.42-12.97,8.34-3.4,18.73-5.1,31.16-5.1,13.9,0,24.83,1.64,32.78,4.92,7.95,3.28,13.57,8.48,16.85,15.58,3.28,7.11,4.92,16.53,4.92,28.26,0,7.41-.02,13.71-.06,18.88-.04,5.17-.1,10.93-.17,17.26,0,5.95.98,12.14,2.95,18.59,1.97,6.45,2.95,10.6,2.95,12.45,0,3.24-1.53,6.2-4.58,8.86-3.05,2.66-6.51,4-10.37,4-3.24,0-6.45-1.53-9.61-4.58-3.17-3.05-6.53-7.47-10.08-13.26ZM220.83,112.01c-4.63,1.7-11.37,3.49-20.21,5.39-8.84,1.89-14.96,3.28-18.36,4.17-3.4.89-6.64,2.63-9.73,5.21-3.09,2.59-4.63,6.2-4.63,10.83s1.81,8.86,5.44,12.22c3.63,3.36,8.38,5.04,14.25,5.04,6.25,0,12.03-1.37,17.32-4.11,5.29-2.74,9.17-6.27,11.64-10.6,2.86-4.79,4.29-12.66,4.29-23.63v-4.52Z"/>
    <path class="cls-2" d="M348.06,157.53v-3.13c-4.25,4.86-8.44,8.82-12.57,11.87-4.13,3.05-8.61,5.37-13.44,6.95-4.83,1.58-10.1,2.38-15.81,2.38-7.57,0-14.58-1.6-21.02-4.81-6.45-3.2-12.03-7.78-16.74-13.73-4.71-5.95-8.28-12.93-10.71-20.97-2.43-8.03-3.65-16.72-3.65-26.06,0-19.77,4.83-35.17,14.48-46.22,9.65-11.04,22.36-16.56,38.11-16.56,9.11,0,16.8,1.56,23.05,4.69,6.25,3.13,12.35,7.93,18.3,14.42V19.69c0-6.49,1.29-11.39,3.88-14.71,2.59-3.32,6.27-4.98,11.06-4.98s8.47,1.53,11.06,4.58c2.59,3.05,3.88,7.55,3.88,13.49v139.46c0,6.02-1.39,10.54-4.17,13.55-2.78,3.01-6.37,4.52-10.77,4.52s-7.9-1.56-10.71-4.69c-2.82-3.13-4.23-7.59-4.23-13.38ZM285.86,111.08c0,8.57,1.33,15.87,4,21.89,2.66,6.02,6.31,10.56,10.95,13.61,4.63,3.05,9.69,4.58,15.17,4.58s10.64-1.45,15.23-4.34c4.59-2.9,8.26-7.34,11-13.32,2.74-5.98,4.11-13.45,4.11-22.41,0-8.42-1.37-15.65-4.11-21.72-2.74-6.06-6.45-10.69-11.12-13.9-4.67-3.2-9.79-4.81-15.35-4.81s-10.97,1.64-15.52,4.92c-4.56,3.28-8.09,7.99-10.6,14.13-2.51,6.14-3.76,13.26-3.76,21.37Z"/>
    <path class="cls-2" d="M467.07,157.76c-7.64,5.95-15.04,10.41-22.18,13.38-7.14,2.97-15.16,4.46-24.03,4.46-8.11,0-15.23-1.6-21.37-4.81-6.14-3.2-10.87-7.55-14.19-13.03-3.32-5.48-4.98-11.43-4.98-17.84,0-8.65,2.74-16.02,8.22-22.12,5.48-6.1,13.01-10.19,22.59-12.28,2.01-.46,6.99-1.51,14.94-3.13,7.95-1.62,14.77-3.11,20.44-4.46,5.68-1.35,11.83-2.99,18.48-4.92-.39-8.34-2.07-14.46-5.04-18.36-2.97-3.9-9.13-5.85-18.47-5.85-8.03,0-14.07,1.12-18.13,3.36-4.05,2.24-7.53,5.6-10.43,10.08-2.9,4.48-4.94,7.43-6.14,8.86-1.2,1.43-3.76,2.14-7.7,2.14-3.55,0-6.62-1.14-9.21-3.42-2.59-2.28-3.88-5.19-3.88-8.75,0-5.56,1.97-10.96,5.91-16.22,3.94-5.25,10.08-9.57,18.42-12.97,8.34-3.4,18.73-5.1,31.16-5.1,13.9,0,24.83,1.64,32.78,4.92,7.95,3.28,13.57,8.48,16.85,15.58,3.28,7.11,4.92,16.53,4.92,28.26,0,7.41-.02,13.71-.06,18.88-.04,5.17-.1,10.93-.17,17.26,0,5.95.98,12.14,2.95,18.59,1.97,6.45,2.95,10.6,2.95,12.45,0,3.24-1.53,6.2-4.58,8.86-3.05,2.66-6.51,4-10.37,4-3.24,0-6.45-1.53-9.61-4.58-3.17-3.05-6.53-7.47-10.08-13.26ZM464.99,112.01c-4.63,1.7-11.37,3.49-20.21,5.39-8.84,1.89-14.96,3.28-18.36,4.17-3.4.89-6.64,2.63-9.73,5.21-3.09,2.59-4.63,6.2-4.63,10.83s1.81,8.86,5.44,12.22c3.63,3.36,8.38,5.04,14.25,5.04,6.25,0,12.03-1.37,17.32-4.11,5.29-2.74,9.17-6.27,11.64-10.6,2.86-4.79,4.29-12.66,4.29-23.63v-4.52Z"/>
    <path class="cls-2" d="M536.97,129.96v26.41c0,6.41-1.51,11.22-4.52,14.42-3.01,3.2-6.83,4.81-11.47,4.81s-8.3-1.62-11.24-4.86c-2.94-3.24-4.4-8.03-4.4-14.36v-88.03c0-14.21,5.13-21.31,15.41-21.31,5.25,0,9.03,1.66,11.35,4.98,2.32,3.32,3.59,8.22,3.82,14.71,3.78-6.49,7.66-11.39,11.64-14.71,3.98-3.32,9.29-4.98,15.93-4.98s13.09,1.66,19.34,4.98c6.26,3.32,9.38,7.72,9.38,13.2,0,3.86-1.33,7.05-4,9.56-2.66,2.51-5.54,3.76-8.63,3.76-1.16,0-3.96-.71-8.4-2.14-4.44-1.43-8.36-2.14-11.76-2.14-4.63,0-8.42,1.22-11.35,3.65-2.94,2.43-5.21,6.04-6.83,10.83-1.62,4.79-2.74,10.48-3.36,17.09-.62,6.6-.93,14.65-.93,24.15Z"/>
  </g>
</svg>